<mxfile host="app.diagrams.net" modified="2024-04-23T11:37:54.453Z" agent="Mozilla/5.0 (Windows NT 10.0; Win64; x64) AppleWebKit/537.36 (KHTML, like Gecko) Chrome/123.0.0.0 Safari/537.36" etag="h0FdqPEaes3GmW1Q1en8" version="24.2.8" type="github">
  <diagram id="R2lEEEUBdFMjLlhIrx00" name="Page-1">
    <mxGraphModel dx="993" dy="558" grid="1" gridSize="10" guides="1" tooltips="1" connect="1" arrows="1" fold="1" page="1" pageScale="1" pageWidth="850" pageHeight="1100" math="0" shadow="0" extFonts="Permanent Marker^https://fonts.googleapis.com/css?family=Permanent+Marker">
      <root>
        <mxCell id="0" />
        <mxCell id="1" parent="0" />
        <mxCell id="bKb1I-l-ZIBgJFh0W5d2-25" style="edgeStyle=orthogonalEdgeStyle;rounded=0;orthogonalLoop=1;jettySize=auto;html=1;exitX=0;exitY=1;exitDx=0;exitDy=0;entryX=1;entryY=0;entryDx=0;entryDy=0;" edge="1" parent="1" source="bKb1I-l-ZIBgJFh0W5d2-12" target="bKb1I-l-ZIBgJFh0W5d2-16">
          <mxGeometry relative="1" as="geometry" />
        </mxCell>
        <mxCell id="bKb1I-l-ZIBgJFh0W5d2-12" value="Estado" style="ellipse;whiteSpace=wrap;html=1;aspect=fixed;" vertex="1" parent="1">
          <mxGeometry x="270" y="200" width="70" height="70" as="geometry" />
        </mxCell>
        <mxCell id="bKb1I-l-ZIBgJFh0W5d2-13" value="NumExp" style="ellipse;whiteSpace=wrap;html=1;aspect=fixed;" vertex="1" parent="1">
          <mxGeometry x="90" y="200" width="70" height="70" as="geometry" />
        </mxCell>
        <mxCell id="bKb1I-l-ZIBgJFh0W5d2-14" value="FechaFin" style="ellipse;whiteSpace=wrap;html=1;aspect=fixed;" vertex="1" parent="1">
          <mxGeometry x="230" y="460" width="70" height="70" as="geometry" />
        </mxCell>
        <mxCell id="bKb1I-l-ZIBgJFh0W5d2-56" style="edgeStyle=orthogonalEdgeStyle;rounded=0;orthogonalLoop=1;jettySize=auto;html=1;exitX=0.5;exitY=0;exitDx=0;exitDy=0;entryX=0;entryY=0.5;entryDx=0;entryDy=0;" edge="1" parent="1" source="bKb1I-l-ZIBgJFh0W5d2-15" target="bKb1I-l-ZIBgJFh0W5d2-54">
          <mxGeometry relative="1" as="geometry">
            <Array as="points">
              <mxPoint x="155" y="460" />
              <mxPoint x="155" y="405" />
            </Array>
          </mxGeometry>
        </mxCell>
        <mxCell id="bKb1I-l-ZIBgJFh0W5d2-15" value="FechaInicio" style="ellipse;whiteSpace=wrap;html=1;aspect=fixed;" vertex="1" parent="1">
          <mxGeometry x="130" y="460" width="70" height="70" as="geometry" />
        </mxCell>
        <mxCell id="bKb1I-l-ZIBgJFh0W5d2-40" style="edgeStyle=orthogonalEdgeStyle;rounded=0;orthogonalLoop=1;jettySize=auto;html=1;exitX=1;exitY=0.5;exitDx=0;exitDy=0;entryX=0;entryY=0.5;entryDx=0;entryDy=0;" edge="1" parent="1" target="bKb1I-l-ZIBgJFh0W5d2-17">
          <mxGeometry relative="1" as="geometry">
            <mxPoint x="270" y="330.0000000000001" as="sourcePoint" />
            <mxPoint x="385.0000000000002" y="279.9999999999999" as="targetPoint" />
            <Array as="points">
              <mxPoint x="270" y="310" />
              <mxPoint x="328" y="310" />
              <mxPoint x="328" y="270" />
            </Array>
          </mxGeometry>
        </mxCell>
        <mxCell id="bKb1I-l-ZIBgJFh0W5d2-65" style="edgeStyle=orthogonalEdgeStyle;rounded=0;orthogonalLoop=1;jettySize=auto;html=1;exitX=1;exitY=1;exitDx=0;exitDy=0;entryX=0.5;entryY=0;entryDx=0;entryDy=0;" edge="1" parent="1" source="bKb1I-l-ZIBgJFh0W5d2-16" target="bKb1I-l-ZIBgJFh0W5d2-42">
          <mxGeometry relative="1" as="geometry">
            <Array as="points">
              <mxPoint x="270" y="370" />
              <mxPoint x="425" y="370" />
            </Array>
          </mxGeometry>
        </mxCell>
        <mxCell id="bKb1I-l-ZIBgJFh0W5d2-16" value="Asunto" style="rounded=0;whiteSpace=wrap;html=1;" vertex="1" parent="1">
          <mxGeometry x="150" y="290" width="120" height="60" as="geometry" />
        </mxCell>
        <mxCell id="bKb1I-l-ZIBgJFh0W5d2-41" style="edgeStyle=orthogonalEdgeStyle;rounded=0;orthogonalLoop=1;jettySize=auto;html=1;exitX=1;exitY=0.5;exitDx=0;exitDy=0;entryX=0;entryY=0.5;entryDx=0;entryDy=0;" edge="1" parent="1" source="bKb1I-l-ZIBgJFh0W5d2-17" target="bKb1I-l-ZIBgJFh0W5d2-18">
          <mxGeometry relative="1" as="geometry" />
        </mxCell>
        <mxCell id="bKb1I-l-ZIBgJFh0W5d2-17" value="Pertenece" style="rhombus;whiteSpace=wrap;html=1;" vertex="1" parent="1">
          <mxGeometry x="385" y="230" width="80" height="80" as="geometry" />
        </mxCell>
        <mxCell id="bKb1I-l-ZIBgJFh0W5d2-18" value="Cliente" style="rounded=0;whiteSpace=wrap;html=1;" vertex="1" parent="1">
          <mxGeometry x="530" y="190" width="120" height="60" as="geometry" />
        </mxCell>
        <mxCell id="bKb1I-l-ZIBgJFh0W5d2-28" style="edgeStyle=orthogonalEdgeStyle;rounded=0;orthogonalLoop=1;jettySize=auto;html=1;exitX=0.5;exitY=0;exitDx=0;exitDy=0;entryX=0.5;entryY=1;entryDx=0;entryDy=0;" edge="1" parent="1" source="bKb1I-l-ZIBgJFh0W5d2-19" target="bKb1I-l-ZIBgJFh0W5d2-18">
          <mxGeometry relative="1" as="geometry" />
        </mxCell>
        <mxCell id="bKb1I-l-ZIBgJFh0W5d2-19" value="Direccion" style="ellipse;whiteSpace=wrap;html=1;aspect=fixed;" vertex="1" parent="1">
          <mxGeometry x="555" y="270" width="70" height="70" as="geometry" />
        </mxCell>
        <mxCell id="bKb1I-l-ZIBgJFh0W5d2-29" style="edgeStyle=orthogonalEdgeStyle;rounded=0;orthogonalLoop=1;jettySize=auto;html=1;exitX=0.5;exitY=1;exitDx=0;exitDy=0;entryX=1;entryY=0;entryDx=0;entryDy=0;" edge="1" parent="1" source="bKb1I-l-ZIBgJFh0W5d2-20" target="bKb1I-l-ZIBgJFh0W5d2-18">
          <mxGeometry relative="1" as="geometry" />
        </mxCell>
        <mxCell id="bKb1I-l-ZIBgJFh0W5d2-20" value="Nombre" style="ellipse;whiteSpace=wrap;html=1;aspect=fixed;" vertex="1" parent="1">
          <mxGeometry x="625" y="80" width="70" height="70" as="geometry" />
        </mxCell>
        <mxCell id="bKb1I-l-ZIBgJFh0W5d2-30" style="edgeStyle=orthogonalEdgeStyle;rounded=0;orthogonalLoop=1;jettySize=auto;html=1;exitX=0.5;exitY=1;exitDx=0;exitDy=0;entryX=0;entryY=0;entryDx=0;entryDy=0;" edge="1" parent="1" source="bKb1I-l-ZIBgJFh0W5d2-21" target="bKb1I-l-ZIBgJFh0W5d2-18">
          <mxGeometry relative="1" as="geometry" />
        </mxCell>
        <mxCell id="bKb1I-l-ZIBgJFh0W5d2-21" value="DNI" style="ellipse;whiteSpace=wrap;html=1;aspect=fixed;" vertex="1" parent="1">
          <mxGeometry x="485" y="80" width="70" height="70" as="geometry" />
        </mxCell>
        <mxCell id="bKb1I-l-ZIBgJFh0W5d2-22" style="edgeStyle=orthogonalEdgeStyle;rounded=0;orthogonalLoop=1;jettySize=auto;html=1;exitX=1;exitY=1;exitDx=0;exitDy=0;entryX=0.078;entryY=-0.033;entryDx=0;entryDy=0;entryPerimeter=0;" edge="1" parent="1" source="bKb1I-l-ZIBgJFh0W5d2-13" target="bKb1I-l-ZIBgJFh0W5d2-16">
          <mxGeometry relative="1" as="geometry" />
        </mxCell>
        <mxCell id="bKb1I-l-ZIBgJFh0W5d2-45" style="edgeStyle=orthogonalEdgeStyle;rounded=0;orthogonalLoop=1;jettySize=auto;html=1;exitX=1;exitY=0.5;exitDx=0;exitDy=0;entryX=0;entryY=0.5;entryDx=0;entryDy=0;" edge="1" parent="1" source="bKb1I-l-ZIBgJFh0W5d2-42" target="bKb1I-l-ZIBgJFh0W5d2-44">
          <mxGeometry relative="1" as="geometry" />
        </mxCell>
        <mxCell id="bKb1I-l-ZIBgJFh0W5d2-42" value="Llevado" style="rhombus;whiteSpace=wrap;html=1;" vertex="1" parent="1">
          <mxGeometry x="385" y="380" width="80" height="80" as="geometry" />
        </mxCell>
        <mxCell id="bKb1I-l-ZIBgJFh0W5d2-44" value="Procurador" style="rounded=0;whiteSpace=wrap;html=1;" vertex="1" parent="1">
          <mxGeometry x="530" y="420" width="120" height="60" as="geometry" />
        </mxCell>
        <mxCell id="bKb1I-l-ZIBgJFh0W5d2-49" style="edgeStyle=orthogonalEdgeStyle;rounded=0;orthogonalLoop=1;jettySize=auto;html=1;exitX=1;exitY=0;exitDx=0;exitDy=0;entryX=0;entryY=1;entryDx=0;entryDy=0;" edge="1" parent="1" source="bKb1I-l-ZIBgJFh0W5d2-46" target="bKb1I-l-ZIBgJFh0W5d2-44">
          <mxGeometry relative="1" as="geometry" />
        </mxCell>
        <mxCell id="bKb1I-l-ZIBgJFh0W5d2-46" value="DNI" style="ellipse;whiteSpace=wrap;html=1;aspect=fixed;" vertex="1" parent="1">
          <mxGeometry x="460" y="500" width="70" height="70" as="geometry" />
        </mxCell>
        <mxCell id="bKb1I-l-ZIBgJFh0W5d2-50" style="edgeStyle=orthogonalEdgeStyle;rounded=0;orthogonalLoop=1;jettySize=auto;html=1;exitX=0.5;exitY=0;exitDx=0;exitDy=0;entryX=0.5;entryY=1;entryDx=0;entryDy=0;" edge="1" parent="1" source="bKb1I-l-ZIBgJFh0W5d2-47" target="bKb1I-l-ZIBgJFh0W5d2-44">
          <mxGeometry relative="1" as="geometry" />
        </mxCell>
        <mxCell id="bKb1I-l-ZIBgJFh0W5d2-47" value="Nombre" style="ellipse;whiteSpace=wrap;html=1;aspect=fixed;" vertex="1" parent="1">
          <mxGeometry x="555" y="500" width="70" height="70" as="geometry" />
        </mxCell>
        <mxCell id="bKb1I-l-ZIBgJFh0W5d2-52" style="edgeStyle=orthogonalEdgeStyle;rounded=0;orthogonalLoop=1;jettySize=auto;html=1;exitX=0.5;exitY=0;exitDx=0;exitDy=0;entryX=1;entryY=1;entryDx=0;entryDy=0;" edge="1" parent="1" source="bKb1I-l-ZIBgJFh0W5d2-48" target="bKb1I-l-ZIBgJFh0W5d2-44">
          <mxGeometry relative="1" as="geometry" />
        </mxCell>
        <mxCell id="bKb1I-l-ZIBgJFh0W5d2-48" value="Direccion" style="ellipse;whiteSpace=wrap;html=1;aspect=fixed;" vertex="1" parent="1">
          <mxGeometry x="650" y="500" width="70" height="70" as="geometry" />
        </mxCell>
        <mxCell id="bKb1I-l-ZIBgJFh0W5d2-58" style="edgeStyle=orthogonalEdgeStyle;rounded=0;orthogonalLoop=1;jettySize=auto;html=1;exitX=0.5;exitY=0;exitDx=0;exitDy=0;entryX=0.5;entryY=1;entryDx=0;entryDy=0;" edge="1" parent="1" source="bKb1I-l-ZIBgJFh0W5d2-54" target="bKb1I-l-ZIBgJFh0W5d2-16">
          <mxGeometry relative="1" as="geometry" />
        </mxCell>
        <mxCell id="bKb1I-l-ZIBgJFh0W5d2-54" value="Periodo" style="ellipse;whiteSpace=wrap;html=1;aspect=fixed;" vertex="1" parent="1">
          <mxGeometry x="175" y="370" width="70" height="70" as="geometry" />
        </mxCell>
        <mxCell id="bKb1I-l-ZIBgJFh0W5d2-55" style="edgeStyle=orthogonalEdgeStyle;rounded=0;orthogonalLoop=1;jettySize=auto;html=1;exitX=0.5;exitY=0;exitDx=0;exitDy=0;entryX=1;entryY=0.5;entryDx=0;entryDy=0;" edge="1" parent="1" source="bKb1I-l-ZIBgJFh0W5d2-14" target="bKb1I-l-ZIBgJFh0W5d2-54">
          <mxGeometry relative="1" as="geometry" />
        </mxCell>
        <mxCell id="bKb1I-l-ZIBgJFh0W5d2-59" value="1" style="text;html=1;align=center;verticalAlign=middle;resizable=0;points=[];autosize=1;strokeColor=none;fillColor=none;" vertex="1" parent="1">
          <mxGeometry x="270" y="280" width="30" height="30" as="geometry" />
        </mxCell>
        <mxCell id="bKb1I-l-ZIBgJFh0W5d2-60" value="1" style="text;html=1;align=center;verticalAlign=middle;resizable=0;points=[];autosize=1;strokeColor=none;fillColor=none;" vertex="1" parent="1">
          <mxGeometry x="505" y="188" width="30" height="30" as="geometry" />
        </mxCell>
        <mxCell id="bKb1I-l-ZIBgJFh0W5d2-61" value="1" style="text;html=1;align=center;verticalAlign=middle;resizable=0;points=[];autosize=1;strokeColor=none;fillColor=none;" vertex="1" parent="1">
          <mxGeometry x="270" y="370" width="30" height="30" as="geometry" />
        </mxCell>
        <mxCell id="bKb1I-l-ZIBgJFh0W5d2-62" value="n" style="text;html=1;align=center;verticalAlign=middle;resizable=0;points=[];autosize=1;strokeColor=none;fillColor=none;" vertex="1" parent="1">
          <mxGeometry x="500" y="450" width="30" height="30" as="geometry" />
        </mxCell>
        <mxCell id="bKb1I-l-ZIBgJFh0W5d2-67" value="1" style="text;html=1;align=center;verticalAlign=middle;resizable=0;points=[];autosize=1;strokeColor=none;fillColor=none;" vertex="1" parent="1">
          <mxGeometry x="500" y="420" width="30" height="30" as="geometry" />
        </mxCell>
        <mxCell id="bKb1I-l-ZIBgJFh0W5d2-68" value="n" style="text;html=1;align=center;verticalAlign=middle;resizable=0;points=[];autosize=1;strokeColor=none;fillColor=none;" vertex="1" parent="1">
          <mxGeometry x="265" y="338" width="30" height="30" as="geometry" />
        </mxCell>
        <mxCell id="bKb1I-l-ZIBgJFh0W5d2-69" value="(n,m)" style="text;html=1;align=center;verticalAlign=middle;resizable=0;points=[];autosize=1;strokeColor=none;fillColor=none;" vertex="1" parent="1">
          <mxGeometry x="435" y="350" width="50" height="30" as="geometry" />
        </mxCell>
        <mxCell id="bKb1I-l-ZIBgJFh0W5d2-71" value="1" style="text;html=1;align=center;verticalAlign=middle;resizable=0;points=[];autosize=1;strokeColor=none;fillColor=none;" vertex="1" parent="1">
          <mxGeometry x="505" y="218" width="30" height="30" as="geometry" />
        </mxCell>
        <mxCell id="bKb1I-l-ZIBgJFh0W5d2-73" value="n" style="text;html=1;align=center;verticalAlign=middle;resizable=0;points=[];autosize=1;strokeColor=none;fillColor=none;" vertex="1" parent="1">
          <mxGeometry x="270" y="310" width="30" height="30" as="geometry" />
        </mxCell>
        <mxCell id="bKb1I-l-ZIBgJFh0W5d2-74" value="(1,n)" style="text;html=1;align=center;verticalAlign=middle;resizable=0;points=[];autosize=1;strokeColor=none;fillColor=none;" vertex="1" parent="1">
          <mxGeometry x="425" y="200" width="50" height="30" as="geometry" />
        </mxCell>
        <mxCell id="bKb1I-l-ZIBgJFh0W5d2-75" value="" style="rounded=0;whiteSpace=wrap;html=1;" vertex="1" parent="1">
          <mxGeometry x="90" y="710" width="120" height="60" as="geometry" />
        </mxCell>
        <mxCell id="bKb1I-l-ZIBgJFh0W5d2-82" style="edgeStyle=orthogonalEdgeStyle;rounded=0;orthogonalLoop=1;jettySize=auto;html=1;exitX=0.5;exitY=0;exitDx=0;exitDy=0;entryX=0.5;entryY=1;entryDx=0;entryDy=0;" edge="1" parent="1" source="bKb1I-l-ZIBgJFh0W5d2-77" target="bKb1I-l-ZIBgJFh0W5d2-75">
          <mxGeometry relative="1" as="geometry" />
        </mxCell>
        <mxCell id="bKb1I-l-ZIBgJFh0W5d2-77" value="País" style="ellipse;whiteSpace=wrap;html=1;aspect=fixed;" vertex="1" parent="1">
          <mxGeometry x="115" y="800" width="70" height="70" as="geometry" />
        </mxCell>
        <mxCell id="bKb1I-l-ZIBgJFh0W5d2-84" style="edgeStyle=orthogonalEdgeStyle;rounded=0;orthogonalLoop=1;jettySize=auto;html=1;exitX=0.5;exitY=0;exitDx=0;exitDy=0;entryX=0;entryY=0.5;entryDx=0;entryDy=0;" edge="1" parent="1" source="bKb1I-l-ZIBgJFh0W5d2-78" target="bKb1I-l-ZIBgJFh0W5d2-77">
          <mxGeometry relative="1" as="geometry" />
        </mxCell>
        <mxCell id="bKb1I-l-ZIBgJFh0W5d2-78" value="Tamaño(m^2)" style="ellipse;whiteSpace=wrap;html=1;aspect=fixed;" vertex="1" parent="1">
          <mxGeometry x="30" y="910" width="70" height="70" as="geometry" />
        </mxCell>
        <mxCell id="bKb1I-l-ZIBgJFh0W5d2-85" style="edgeStyle=orthogonalEdgeStyle;rounded=0;orthogonalLoop=1;jettySize=auto;html=1;exitX=0.5;exitY=1;exitDx=0;exitDy=0;entryX=0;entryY=0.25;entryDx=0;entryDy=0;" edge="1" parent="1" source="bKb1I-l-ZIBgJFh0W5d2-79" target="bKb1I-l-ZIBgJFh0W5d2-75">
          <mxGeometry relative="1" as="geometry" />
        </mxCell>
        <mxCell id="bKb1I-l-ZIBgJFh0W5d2-79" value="Nombre" style="ellipse;whiteSpace=wrap;html=1;aspect=fixed;" vertex="1" parent="1">
          <mxGeometry x="30" y="610" width="70" height="70" as="geometry" />
        </mxCell>
        <mxCell id="bKb1I-l-ZIBgJFh0W5d2-86" style="edgeStyle=orthogonalEdgeStyle;rounded=0;orthogonalLoop=1;jettySize=auto;html=1;exitX=0.5;exitY=1;exitDx=0;exitDy=0;entryX=1;entryY=0.25;entryDx=0;entryDy=0;" edge="1" parent="1" source="bKb1I-l-ZIBgJFh0W5d2-80" target="bKb1I-l-ZIBgJFh0W5d2-75">
          <mxGeometry relative="1" as="geometry" />
        </mxCell>
        <mxCell id="bKb1I-l-ZIBgJFh0W5d2-80" value="Ciudad" style="ellipse;whiteSpace=wrap;html=1;aspect=fixed;" vertex="1" parent="1">
          <mxGeometry x="210" y="610" width="70" height="70" as="geometry" />
        </mxCell>
        <mxCell id="bKb1I-l-ZIBgJFh0W5d2-83" style="edgeStyle=orthogonalEdgeStyle;rounded=0;orthogonalLoop=1;jettySize=auto;html=1;exitX=0.5;exitY=0;exitDx=0;exitDy=0;entryX=1;entryY=0.5;entryDx=0;entryDy=0;" edge="1" parent="1" source="bKb1I-l-ZIBgJFh0W5d2-81" target="bKb1I-l-ZIBgJFh0W5d2-77">
          <mxGeometry relative="1" as="geometry" />
        </mxCell>
        <mxCell id="bKb1I-l-ZIBgJFh0W5d2-81" value="Presupuesto&lt;div&gt;Anual&lt;/div&gt;" style="ellipse;whiteSpace=wrap;html=1;aspect=fixed;" vertex="1" parent="1">
          <mxGeometry x="185" y="910" width="70" height="70" as="geometry" />
        </mxCell>
      </root>
    </mxGraphModel>
  </diagram>
</mxfile>
